<svg width="128" height="66" viewBox="0 0 128 66" fill="none" xmlns="http://www.w3.org/2000/svg">
<path d="M8.388 19.66V24.772H16.632V29.524H8.388V35.068H17.712V40H2.232V14.728H17.712V19.66H8.388ZM28.1886 34.924H36.9006V40H21.3126V35.104L29.6646 24.988H21.3846V19.912H36.7206V24.808L28.1886 34.924Z" fill="#1E1E1E"/>
<path d="M47.1639 22.756C47.7639 21.82 48.5919 21.064 49.6479 20.488C50.7039 19.912 51.9399 19.624 53.3559 19.624C55.0119 19.624 56.5119 20.044 57.8559 20.884C59.1999 21.724 60.2559 22.924 61.0239 24.484C61.8159 26.044 62.2119 27.856 62.2119 29.92C62.2119 31.984 61.8159 33.808 61.0239 35.392C60.2559 36.952 59.1999 38.164 57.8559 39.028C56.5119 39.868 55.0119 40.288 53.3559 40.288C51.9639 40.288 50.7279 40 49.6479 39.424C48.5919 38.848 47.7639 38.104 47.1639 37.192V49.576H41.0079V19.912H47.1639V22.756ZM55.9479 29.92C55.9479 28.384 55.5159 27.184 54.6519 26.32C53.8119 25.432 52.7679 24.988 51.5199 24.988C50.2959 24.988 49.2519 25.432 48.3879 26.32C47.5479 27.208 47.1279 28.42 47.1279 29.956C47.1279 31.492 47.5479 32.704 48.3879 33.592C49.2519 34.48 50.2959 34.924 51.5199 34.924C52.7439 34.924 53.7879 34.48 54.6519 33.592C55.5159 32.68 55.9479 31.456 55.9479 29.92ZM64.9375 29.92C64.9375 27.856 65.3215 26.044 66.0895 24.484C66.8815 22.924 67.9495 21.724 69.2935 20.884C70.6375 20.044 72.1375 19.624 73.7935 19.624C75.2095 19.624 76.4455 19.912 77.5015 20.488C78.5815 21.064 79.4095 21.82 79.9855 22.756V19.912H86.1415V40H79.9855V37.156C79.3855 38.092 78.5455 38.848 77.4655 39.424C76.4095 40 75.1735 40.288 73.7575 40.288C72.1255 40.288 70.6375 39.868 69.2935 39.028C67.9495 38.164 66.8815 36.952 66.0895 35.392C65.3215 33.808 64.9375 31.984 64.9375 29.92ZM79.9855 29.956C79.9855 28.42 79.5535 27.208 78.6895 26.32C77.8495 25.432 76.8175 24.988 75.5935 24.988C74.3695 24.988 73.3255 25.432 72.4615 26.32C71.6215 27.184 71.2015 28.384 71.2015 29.92C71.2015 31.456 71.6215 32.68 72.4615 33.592C73.3255 34.48 74.3695 34.924 75.5935 34.924C76.8175 34.924 77.8495 34.48 78.6895 33.592C79.5535 32.704 79.9855 31.492 79.9855 29.956ZM97.4711 23.26C98.1911 22.156 99.0911 21.292 100.171 20.668C101.251 20.02 102.451 19.696 103.771 19.696V26.212H102.079C100.543 26.212 99.3911 26.548 98.6231 27.22C97.8551 27.868 97.4711 29.02 97.4711 30.676V40H91.3151V19.912H97.4711V23.26ZM119.71 40L113.59 31.576V40H107.434V13.36H113.59V28.084L119.674 19.912H127.27L118.918 29.992L127.342 40H119.71Z" fill="#51CBB2"/>
<path d="M2.17 61.42H5.03V62H1.37V61.42L4.18 57.12H1.42V56.54H4.98V57.12L2.17 61.42ZM10.4741 56.44C11.1274 56.44 11.6607 56.6433 12.0741 57.05C12.4874 57.45 12.6941 58.0333 12.6941 58.8V62H12.0041V58.88C12.0041 58.2867 11.8541 57.8333 11.5541 57.52C11.2607 57.2067 10.8574 57.05 10.3441 57.05C9.8174 57.05 9.3974 57.2167 9.08406 57.55C8.77073 57.8833 8.61406 58.3733 8.61406 59.02V62H7.91406V56.54H8.61406V57.47C8.7874 57.1367 9.0374 56.8833 9.36406 56.71C9.69073 56.53 10.0607 56.44 10.4741 56.44ZM15.6222 59.26C15.6222 58.7 15.7322 58.21 15.9522 57.79C16.1789 57.3633 16.4889 57.0367 16.8822 56.81C17.2822 56.5767 17.7322 56.46 18.2322 56.46C18.7522 56.46 19.1989 56.58 19.5722 56.82C19.9522 57.06 20.2255 57.3667 20.3922 57.74V56.54H21.0922V62H20.3922V60.79C20.2189 61.1633 19.9422 61.4733 19.5622 61.72C19.1889 61.96 18.7422 62.08 18.2222 62.08C17.7289 62.08 17.2822 61.9633 16.8822 61.73C16.4889 61.4967 16.1789 61.1667 15.9522 60.74C15.7322 60.3133 15.6222 59.82 15.6222 59.26ZM20.3922 59.27C20.3922 58.83 20.3022 58.4433 20.1222 58.11C19.9422 57.7767 19.6955 57.52 19.3822 57.34C19.0755 57.16 18.7355 57.07 18.3622 57.07C17.9755 57.07 17.6289 57.1567 17.3222 57.33C17.0155 57.5033 16.7722 57.7567 16.5922 58.09C16.4189 58.4167 16.3322 58.8067 16.3322 59.26C16.3322 59.7067 16.4189 60.1 16.5922 60.44C16.7722 60.7733 17.0155 61.03 17.3222 61.21C17.6289 61.3833 17.9755 61.47 18.3622 61.47C18.7355 61.47 19.0755 61.38 19.3822 61.2C19.6955 61.02 19.9422 60.7633 20.1222 60.43C20.3022 60.0967 20.3922 59.71 20.3922 59.27ZM24.7902 55.51C24.6502 55.51 24.5302 55.46 24.4302 55.36C24.3302 55.26 24.2802 55.1367 24.2802 54.99C24.2802 54.8433 24.3302 54.7233 24.4302 54.63C24.5302 54.53 24.6502 54.48 24.7902 54.48C24.9302 54.48 25.0469 54.53 25.1402 54.63C25.2402 54.7233 25.2902 54.8433 25.2902 54.99C25.2902 55.1367 25.2402 55.26 25.1402 55.36C25.0469 55.46 24.9302 55.51 24.7902 55.51ZM25.1302 63.29C25.1302 63.73 25.0202 64.0533 24.8002 64.26C24.5802 64.4733 24.2502 64.58 23.8102 64.58H23.3202V63.98H23.7002C23.9602 63.98 24.1469 63.9233 24.2602 63.81C24.3736 63.7033 24.4302 63.52 24.4302 63.26V56.54H25.1302V63.29ZM28.114 59.26C28.114 58.7 28.2273 58.21 28.454 57.79C28.6807 57.3633 28.9907 57.0367 29.384 56.81C29.784 56.5767 30.234 56.46 30.734 56.46C31.214 56.46 31.6473 56.5767 32.034 56.81C32.4207 57.0433 32.704 57.3467 32.884 57.72V54.6H33.584V62H32.884V60.78C32.7173 61.16 32.444 61.4733 32.064 61.72C31.684 61.96 31.2373 62.08 30.724 62.08C30.224 62.08 29.774 61.9633 29.374 61.73C28.9807 61.4967 28.6707 61.1667 28.444 60.74C28.224 60.3133 28.114 59.82 28.114 59.26ZM32.884 59.27C32.884 58.83 32.794 58.4433 32.614 58.11C32.434 57.7767 32.1873 57.52 31.874 57.34C31.5673 57.16 31.2273 57.07 30.854 57.07C30.4673 57.07 30.1207 57.1567 29.814 57.33C29.5073 57.5033 29.264 57.7567 29.084 58.09C28.9107 58.4167 28.824 58.8067 28.824 59.26C28.824 59.7067 28.9107 60.1 29.084 60.44C29.264 60.7733 29.5073 61.03 29.814 61.21C30.1207 61.3833 30.4673 61.47 30.854 61.47C31.2273 61.47 31.5673 61.38 31.874 61.2C32.1873 61.02 32.434 60.7633 32.614 60.43C32.794 60.0967 32.884 59.71 32.884 59.27ZM37.252 61.42H40.112V62H36.452V61.42L39.262 57.12H36.502V56.54H40.062V57.12L37.252 61.42ZM39.222 54.93L37.172 56.12V55.58L39.222 54.3V54.93ZM49.3202 62.08C48.6936 62.08 48.1802 61.9367 47.7802 61.65C47.3869 61.3567 47.1669 60.96 47.1202 60.46H47.8402C47.8736 60.7667 48.0169 61.0167 48.2702 61.21C48.5302 61.3967 48.8769 61.49 49.3102 61.49C49.6902 61.49 49.9869 61.4 50.2002 61.22C50.4202 61.04 50.5302 60.8167 50.5302 60.55C50.5302 60.3633 50.4702 60.21 50.3502 60.09C50.2302 59.97 50.0769 59.8767 49.8902 59.81C49.7102 59.7367 49.4636 59.66 49.1502 59.58C48.7436 59.4733 48.4136 59.3667 48.1602 59.26C47.9069 59.1533 47.6902 58.9967 47.5102 58.79C47.3369 58.5767 47.2502 58.2933 47.2502 57.94C47.2502 57.6733 47.3302 57.4267 47.4902 57.2C47.6502 56.9733 47.8769 56.7933 48.1702 56.66C48.4636 56.5267 48.7969 56.46 49.1702 56.46C49.7569 56.46 50.2302 56.61 50.5902 56.91C50.9502 57.2033 51.1436 57.61 51.1702 58.13H50.4702C50.4502 57.81 50.3236 57.5533 50.0902 57.36C49.8636 57.16 49.5502 57.06 49.1502 57.06C48.7969 57.06 48.5102 57.1433 48.2902 57.31C48.0702 57.4767 47.9602 57.6833 47.9602 57.93C47.9602 58.1433 48.0236 58.32 48.1502 58.46C48.2836 58.5933 48.4469 58.7 48.6402 58.78C48.8336 58.8533 49.0936 58.9367 49.4202 59.03C49.8136 59.1367 50.1269 59.24 50.3602 59.34C50.5936 59.44 50.7936 59.5867 50.9602 59.78C51.1269 59.9733 51.2136 60.23 51.2202 60.55C51.2202 60.8433 51.1402 61.1067 50.9802 61.34C50.8202 61.5667 50.5969 61.7467 50.3102 61.88C50.0236 62.0133 49.6936 62.08 49.3202 62.08ZM61.4379 56.54L59.7279 62H59.0279L57.5179 57.42L56.0079 62H55.2979L53.5879 56.54H54.2979L55.6579 61.29L57.1879 56.54H57.8879L59.3979 61.3L60.7479 56.54H61.4379ZM66.4822 62.08C65.9689 62.08 65.5055 61.9667 65.0922 61.74C64.6855 61.5067 64.3622 61.18 64.1222 60.76C63.8889 60.3333 63.7722 59.8367 63.7722 59.27C63.7722 58.7033 63.8922 58.21 64.1322 57.79C64.3722 57.3633 64.6989 57.0367 65.1122 56.81C65.5255 56.5767 65.9889 56.46 66.5022 56.46C67.0155 56.46 67.4789 56.5767 67.8922 56.81C68.3122 57.0367 68.6389 57.3633 68.8722 57.79C69.1122 58.21 69.2322 58.7033 69.2322 59.27C69.2322 59.83 69.1122 60.3233 68.8722 60.75C68.6322 61.1767 68.3022 61.5067 67.8822 61.74C67.4622 61.9667 66.9955 62.08 66.4822 62.08ZM66.4822 61.47C66.8422 61.47 67.1755 61.39 67.4822 61.23C67.7889 61.0633 68.0355 60.8167 68.2222 60.49C68.4155 60.1567 68.5122 59.75 68.5122 59.27C68.5122 58.79 68.4189 58.3867 68.2322 58.06C68.0455 57.7267 67.7989 57.48 67.4922 57.32C67.1855 57.1533 66.8522 57.07 66.4922 57.07C66.1322 57.07 65.7989 57.1533 65.4922 57.32C65.1855 57.48 64.9389 57.7267 64.7522 58.06C64.5722 58.3867 64.4822 58.79 64.4822 59.27C64.4822 59.75 64.5722 60.1567 64.7522 60.49C64.9389 60.8167 65.1822 61.0633 65.4822 61.23C65.7889 61.39 66.1222 61.47 66.4822 61.47ZM67.4422 54.88L65.3922 56.07V55.53L67.4422 54.25V54.88ZM72.6082 55.51C72.4682 55.51 72.3482 55.46 72.2482 55.36C72.1482 55.26 72.0982 55.1367 72.0982 54.99C72.0982 54.8433 72.1482 54.7233 72.2482 54.63C72.3482 54.53 72.4682 54.48 72.6082 54.48C72.7482 54.48 72.8649 54.53 72.9582 54.63C73.0582 54.7233 73.1082 54.8433 73.1082 54.99C73.1082 55.1367 73.0582 55.26 72.9582 55.36C72.8649 55.46 72.7482 55.51 72.6082 55.51ZM72.9482 63.29C72.9482 63.73 72.8382 64.0533 72.6182 64.26C72.3982 64.4733 72.0682 64.58 71.6282 64.58H71.1382V63.98H71.5182C71.7782 63.98 71.9649 63.9233 72.0782 63.81C72.1915 63.7033 72.2482 63.52 72.2482 63.26V56.54H72.9482V63.29ZM81.3861 57.74C81.5594 57.3733 81.8328 57.07 82.2061 56.83C82.5861 56.5833 83.0361 56.46 83.5561 56.46C84.0494 56.46 84.4928 56.5767 84.8861 56.81C85.2861 57.0367 85.5961 57.3633 85.8161 57.79C86.0428 58.21 86.1561 58.7 86.1561 59.26C86.1561 59.82 86.0428 60.3133 85.8161 60.74C85.5961 61.1667 85.2861 61.4967 84.8861 61.73C84.4928 61.9633 84.0494 62.08 83.5561 62.08C83.0428 62.08 82.5961 61.96 82.2161 61.72C81.8361 61.4733 81.5594 61.1667 81.3861 60.8V64.58H80.6961V56.54H81.3861V57.74ZM85.4461 59.26C85.4461 58.8067 85.3561 58.4167 85.1761 58.09C85.0028 57.7567 84.7628 57.5033 84.4561 57.33C84.1494 57.1567 83.8028 57.07 83.4161 57.07C83.0428 57.07 82.6994 57.16 82.3861 57.34C82.0794 57.52 81.8361 57.7767 81.6561 58.11C81.4761 58.4433 81.3861 58.83 81.3861 59.27C81.3861 59.71 81.4761 60.0967 81.6561 60.43C81.8361 60.7633 82.0794 61.02 82.3861 61.2C82.6994 61.38 83.0428 61.47 83.4161 61.47C83.8028 61.47 84.1494 61.3833 84.4561 61.21C84.7628 61.03 85.0028 60.7733 85.1761 60.44C85.3561 60.1 85.4461 59.7067 85.4461 59.26ZM88.8241 59.26C88.8241 58.7 88.9341 58.21 89.1541 57.79C89.3808 57.3633 89.6908 57.0367 90.0841 56.81C90.4841 56.5767 90.9341 56.46 91.4341 56.46C91.9541 56.46 92.4008 56.58 92.7741 56.82C93.1541 57.06 93.4275 57.3667 93.5941 57.74V56.54H94.2941V62H93.5941V60.79C93.4208 61.1633 93.1441 61.4733 92.7641 61.72C92.3908 61.96 91.9441 62.08 91.4241 62.08C90.9308 62.08 90.4841 61.9633 90.0841 61.73C89.6908 61.4967 89.3808 61.1667 89.1541 60.74C88.9341 60.3133 88.8241 59.82 88.8241 59.26ZM93.5941 59.27C93.5941 58.83 93.5041 58.4433 93.3241 58.11C93.1441 57.7767 92.8975 57.52 92.5841 57.34C92.2775 57.16 91.9375 57.07 91.5641 57.07C91.1775 57.07 90.8308 57.1567 90.5241 57.33C90.2175 57.5033 89.9741 57.7567 89.7941 58.09C89.6208 58.4167 89.5341 58.8067 89.5341 59.26C89.5341 59.7067 89.6208 60.1 89.7941 60.44C89.9741 60.7733 90.2175 61.03 90.5241 61.21C90.8308 61.3833 91.1775 61.47 91.5641 61.47C91.9375 61.47 92.2775 61.38 92.5841 61.2C92.8975 61.02 93.1441 60.7633 93.3241 60.43C93.5041 60.0967 93.5941 59.71 93.5941 59.27ZM98.2922 57.51C98.4455 57.17 98.6789 56.9067 98.9922 56.72C99.3122 56.5333 99.7022 56.44 100.162 56.44V57.17H99.9722C99.4655 57.17 99.0589 57.3067 98.7522 57.58C98.4455 57.8533 98.2922 58.31 98.2922 58.95V62H97.5922V56.54H98.2922V57.51ZM105.865 62L103.615 59.55V62H102.915V54.6H103.615V58.98L105.815 56.54H106.795L104.205 59.26L106.815 62H105.865ZM109.77 55.51C109.63 55.51 109.51 55.46 109.41 55.36C109.31 55.26 109.26 55.1367 109.26 54.99C109.26 54.8433 109.31 54.7233 109.41 54.63C109.51 54.53 109.63 54.48 109.77 54.48C109.91 54.48 110.03 54.53 110.13 54.63C110.23 54.7233 110.28 54.8433 110.28 54.99C110.28 55.1367 110.23 55.26 110.13 55.36C110.03 55.46 109.91 55.51 109.77 55.51ZM110.12 56.54V62H109.42V56.54H110.12ZM115.965 56.44C116.618 56.44 117.152 56.6433 117.565 57.05C117.978 57.45 118.185 58.0333 118.185 58.8V62H117.495V58.88C117.495 58.2867 117.345 57.8333 117.045 57.52C116.752 57.2067 116.348 57.05 115.835 57.05C115.308 57.05 114.888 57.2167 114.575 57.55C114.262 57.8833 114.105 58.3733 114.105 59.02V62H113.405V56.54H114.105V57.47C114.278 57.1367 114.528 56.8833 114.855 56.71C115.182 56.53 115.552 56.44 115.965 56.44ZM123.723 56.46C124.237 56.46 124.683 56.58 125.063 56.82C125.443 57.06 125.717 57.3633 125.883 57.73V56.54H126.583V62.14C126.583 62.64 126.473 63.0833 126.253 63.47C126.04 63.8567 125.74 64.1533 125.353 64.36C124.967 64.5733 124.527 64.68 124.033 64.68C123.333 64.68 122.75 64.5133 122.283 64.18C121.823 63.8467 121.537 63.3933 121.423 62.82H122.113C122.233 63.2 122.46 63.5033 122.793 63.73C123.133 63.9567 123.547 64.07 124.033 64.07C124.387 64.07 124.703 63.9933 124.983 63.84C125.263 63.6933 125.483 63.4733 125.643 63.18C125.803 62.8867 125.883 62.54 125.883 62.14V60.79C125.71 61.1633 125.433 61.4733 125.053 61.72C124.68 61.96 124.237 62.08 123.723 62.08C123.223 62.08 122.773 61.9633 122.373 61.73C121.98 61.4967 121.67 61.1667 121.443 60.74C121.223 60.3133 121.113 59.82 121.113 59.26C121.113 58.7 121.223 58.21 121.443 57.79C121.67 57.3633 121.98 57.0367 122.373 56.81C122.773 56.5767 123.223 56.46 123.723 56.46ZM125.883 59.27C125.883 58.83 125.793 58.4433 125.613 58.11C125.433 57.7767 125.187 57.52 124.873 57.34C124.567 57.16 124.227 57.07 123.853 57.07C123.467 57.07 123.12 57.1567 122.813 57.33C122.507 57.5033 122.263 57.7567 122.083 58.09C121.91 58.4167 121.823 58.8067 121.823 59.26C121.823 59.7067 121.91 60.1 122.083 60.44C122.263 60.7733 122.507 61.03 122.813 61.21C123.12 61.3833 123.467 61.47 123.853 61.47C124.227 61.47 124.567 61.38 124.873 61.2C125.187 61.02 125.433 60.7633 125.613 60.43C125.793 60.0967 125.883 59.71 125.883 59.27Z" fill="#1E1E1E"/>
</svg>
