<?xml version="1.0" encoding="utf-8"?>
<!-- Generator: Adobe Illustrator 16.0.0, SVG Export Plug-In . SVG Version: 6.00 Build 0)  -->
<!DOCTYPE svg PUBLIC "-//W3C//DTD SVG 1.1//EN" "http://www.w3.org/Graphics/SVG/1.1/DTD/svg11.dtd">
<svg version="1.1" id="Calque_1" xmlns="http://www.w3.org/2000/svg" xmlns:xlink="http://www.w3.org/1999/xlink" x="0px" y="0px"
	 width="817px" height="472px" viewBox="0 0 817 472" enable-background="new 0 0 817 472" xml:space="preserve">
<g>
	<g>
		<path fill="none" d="M402.574,143.596c-13.476,0-24.44,10.963-24.44,24.441c0,13.474,10.964,24.437,24.438,24.438
			c13.475-0.001,24.437-10.963,24.443-24.438C427.016,154.559,416.05,143.596,402.574,143.596z"/>
		<path fill="#ED1C24" d="M402.571,127.459c-22.375,0-40.577,18.205-40.577,40.578c0,22.375,18.202,40.578,40.577,40.578
			c22.374,0,40.575-18.199,40.575-40.576l0.004-0.002C443.15,145.664,424.946,127.459,402.571,127.459z M402.572,192.475
			c-13.475-0.001-24.438-10.963-24.438-24.438c0-13.479,10.965-24.441,24.44-24.441s24.441,10.963,24.441,24.441
			C427.009,181.511,416.047,192.474,402.572,192.475z"/>
		<polygon points="513.517,216.864 513.517,218.644 657.136,218.644 657.136,346.983 589.059,346.983 589.059,348.763 
			658.915,348.763 658.915,216.864 		"/>
		<path d="M364.93,218.644h72.259c0.669-0.578,1.324-1.17,1.965-1.779h-76.189C363.605,217.473,364.261,218.065,364.93,218.644z"/>
		<polygon points="151.136,348.763 223.059,348.763 223.059,346.983 152.915,346.983 152.915,218.644 288.601,218.644 
			288.601,216.864 151.136,216.864 		"/>
		<path fill="#010101" d="M444.054,110.034l-1.498-2.901l-8.714-17.004h-65.568l-10.807,21.088h-53.866v109.037h42.181
			c-1.527-1.935-2.952-3.947-4.266-6.025h-31.885v-96.984h51.52l10.808-21.088h58.205l10.808,21.088h51.521v96.984h-31.89
			c-1.313,2.078-2.739,4.09-4.267,6.025h42.181V111.217h-50.323L444.054,110.034z"/>
	</g>
	<g>
		<path d="M187.709,301.589c-0.618,0-1.104-0.176-1.456-0.529c-0.354-0.354-0.53-0.838-0.53-1.457v-41.044
			c0-0.617,0.176-1.103,0.53-1.456c0.353-0.354,0.838-0.53,1.456-0.53h11.585c2.427,0,4.645,0.409,6.653,1.225
			c2.008,0.817,3.718,1.932,5.131,3.344c1.411,1.413,2.504,3.09,3.276,5.031c0.771,1.942,1.158,4.038,1.158,6.289v13.24
			c0,2.25-0.387,4.347-1.158,6.289c-0.772,1.942-1.865,3.619-3.276,5.031c-1.413,1.412-3.123,2.526-5.131,3.343
			c-2.009,0.817-4.227,1.225-6.653,1.225H187.709z M209.224,272.461c0-1.545-0.242-2.935-0.728-4.171
			c-0.486-1.235-1.17-2.284-2.053-3.145s-1.931-1.512-3.145-1.953c-1.214-0.44-2.549-0.662-4.005-0.662h-6.62
			c-0.441,0-0.662,0.222-0.662,0.662v31.776c0,0.441,0.221,0.662,0.662,0.662h6.62c1.456,0,2.791-0.221,4.005-0.662
			c1.214-0.44,2.262-1.081,3.145-1.92c0.883-0.838,1.566-1.875,2.053-3.111c0.485-1.235,0.728-2.648,0.728-4.236V272.461z"/>
		<path d="M250.664,301.589c-0.441,0.353-0.938,0.507-1.489,0.464c-0.553-0.045-1.07-0.199-1.556-0.464l-19.265-11.254
			c-0.309-0.176-0.585-0.176-0.827,0c-0.243,0.177-0.409,0.397-0.497,0.662L224.316,300c-0.31,1.06-1.06,1.589-2.251,1.589h-3.243
			c-1.281,0-1.744-0.617-1.391-1.854l13.24-41.375c0.22-0.706,0.519-1.181,0.894-1.424c0.374-0.242,0.871-0.364,1.489-0.364h4.635
			c0.617,0,1.113,0.122,1.489,0.364c0.374,0.243,0.672,0.718,0.894,1.424l12.645,39.588c0.308,1.016,0.132,1.81-0.53,2.383
			L250.664,301.589z M236.034,264.979c-0.133-0.484-0.354-0.728-0.662-0.728c-0.31,0-0.529,0.243-0.662,0.728l-5.229,17.478
			c-0.177,0.574-0.199,1.004-0.066,1.291c0.132,0.287,0.353,0.519,0.662,0.695l12.445,7.281c0.485,0.31,0.838,0.343,1.06,0.1
			c0.22-0.242,0.286-0.519,0.198-0.827L236.034,264.979z"/>
		<path d="M282.705,301.589c-0.618,0-1.115-0.165-1.489-0.496c-0.376-0.331-0.762-0.828-1.159-1.49l-16.814-29.459
			c-0.222-0.353-0.453-0.485-0.695-0.397c-0.243,0.089-0.364,0.31-0.364,0.662v29.194c0,0.619-0.177,1.104-0.529,1.457
			c-0.354,0.354-0.839,0.529-1.456,0.529h-2.317c-0.618,0-1.104-0.176-1.456-0.529c-0.354-0.354-0.53-0.838-0.53-1.457v-41.044
			c0-0.617,0.176-1.103,0.53-1.456c0.353-0.354,0.838-0.53,1.456-0.53h2.582c0.662,0,1.213,0.122,1.654,0.364
			c0.441,0.243,0.838,0.674,1.192,1.291l16.086,28.003c0.177,0.265,0.387,0.375,0.629,0.331s0.364-0.242,0.364-0.596v-27.407
			c0-0.617,0.176-1.103,0.53-1.456c0.353-0.354,0.838-0.53,1.456-0.53h2.317c0.617,0,1.103,0.177,1.456,0.53
			c0.353,0.354,0.529,0.839,0.529,1.456v41.044c0,0.619-0.177,1.104-0.529,1.457c-0.354,0.354-0.839,0.529-1.456,0.529H282.705z"/>
		<path d="M294.621,301.589c-0.618,0-1.104-0.176-1.456-0.529c-0.354-0.354-0.53-0.838-0.53-1.457v-41.044
			c0-0.617,0.176-1.103,0.53-1.456c0.353-0.354,0.838-0.53,1.456-0.53h2.317c0.617,0,1.103,0.177,1.456,0.53
			c0.353,0.354,0.529,0.839,0.529,1.456v41.044c0,0.619-0.177,1.104-0.529,1.457c-0.354,0.354-0.839,0.529-1.456,0.529H294.621z"/>
		<path d="M306.867,301.589c-0.618,0-1.104-0.176-1.456-0.529c-0.354-0.354-0.53-0.838-0.53-1.457v-41.044
			c0-0.617,0.176-1.103,0.53-1.456c0.353-0.354,0.838-0.53,1.456-0.53h21.846c0.618,0,1.104,0.177,1.457,0.53
			c0.353,0.354,0.529,0.839,0.529,1.456v1.986c0,0.618-0.177,1.104-0.529,1.456c-0.354,0.354-0.839,0.529-1.457,0.529h-16.881
			c-0.441,0-0.662,0.222-0.662,0.662v11.916c0,0.442,0.221,0.662,0.662,0.662h15.558c0.617,0,1.103,0.177,1.456,0.529
			c0.353,0.354,0.529,0.839,0.529,1.457v1.985c0,0.619-0.177,1.104-0.529,1.457c-0.354,0.354-0.839,0.529-1.456,0.529h-15.558
			c-0.441,0-0.662,0.222-0.662,0.662v12.578c0,0.441,0.221,0.662,0.662,0.662h18.205c0.618,0,1.103,0.177,1.457,0.529
			c0.353,0.354,0.529,0.839,0.529,1.457v1.985c0,0.619-0.177,1.104-0.529,1.457c-0.354,0.354-0.839,0.529-1.457,0.529H306.867z"/>
		<path d="M338.644,301.589c-0.618,0-1.104-0.176-1.456-0.529c-0.354-0.354-0.53-0.838-0.53-1.457v-41.044
			c0-0.617,0.176-1.103,0.53-1.456c0.353-0.354,0.838-0.53,1.456-0.53h2.317c0.617,0,1.103,0.177,1.456,0.53
			c0.353,0.354,0.529,0.839,0.529,1.456v36.41c0,0.441,0.221,0.662,0.662,0.662h18.073c0.617,0,1.103,0.177,1.456,0.529
			c0.353,0.354,0.529,0.839,0.529,1.457v1.985c0,0.619-0.177,1.104-0.529,1.457c-0.354,0.354-0.839,0.529-1.456,0.529H338.644z"/>
		<path d="M413.979,301.589c-0.618,0-1.104-0.176-1.456-0.529c-0.354-0.354-0.53-0.838-0.53-1.457v-30.65
			c0-0.397-0.132-0.662-0.396-0.795c-0.266-0.132-0.486,0.045-0.662,0.53l-6.687,18.867c-0.441,1.191-1.236,1.787-2.383,1.787
			h-4.237c-1.148,0-1.942-0.596-2.383-1.787l-6.687-18.867c-0.177-0.397-0.397-0.596-0.662-0.596s-0.397,0.287-0.397,0.86v30.65
			c0,0.619-0.177,1.104-0.529,1.457c-0.354,0.354-0.839,0.529-1.456,0.529h-2.317c-0.618,0-1.104-0.176-1.456-0.529
			c-0.354-0.354-0.53-0.838-0.53-1.457v-41.044c0-0.617,0.176-1.103,0.53-1.456c0.353-0.354,0.838-0.53,1.456-0.53h5.825
			c0.618,0,1.104,0.144,1.457,0.431c0.353,0.287,0.617,0.673,0.794,1.158l7.812,23.104c0.133,0.441,0.342,0.651,0.629,0.629
			s0.519-0.232,0.695-0.629l7.812-23.104c0.176-0.485,0.441-0.871,0.795-1.158c0.353-0.287,0.838-0.431,1.456-0.431h5.826
			c0.617,0,1.103,0.177,1.456,0.53c0.353,0.354,0.529,0.839,0.529,1.456v41.044c0,0.619-0.177,1.104-0.529,1.457
			c-0.354,0.354-0.839,0.529-1.456,0.529H413.979z"/>
		<path d="M454.097,301.589c-0.441,0.353-0.938,0.507-1.489,0.464c-0.553-0.045-1.07-0.199-1.556-0.464l-19.265-11.254
			c-0.309-0.176-0.585-0.176-0.827,0c-0.243,0.177-0.409,0.397-0.497,0.662L427.749,300c-0.31,1.06-1.06,1.589-2.251,1.589h-3.243
			c-1.281,0-1.744-0.617-1.391-1.854l13.24-41.375c0.22-0.706,0.519-1.181,0.894-1.424c0.374-0.242,0.871-0.364,1.489-0.364h4.635
			c0.617,0,1.113,0.122,1.489,0.364c0.374,0.243,0.672,0.718,0.894,1.424l12.645,39.588c0.308,1.016,0.132,1.81-0.53,2.383
			L454.097,301.589z M439.467,264.979c-0.133-0.484-0.354-0.728-0.662-0.728c-0.31,0-0.529,0.243-0.662,0.728l-5.229,17.478
			c-0.177,0.574-0.199,1.004-0.066,1.291c0.132,0.287,0.353,0.519,0.662,0.695l12.445,7.281c0.485,0.31,0.838,0.343,1.06,0.1
			c0.22-0.242,0.286-0.519,0.198-0.827L439.467,264.979z"/>
		<path d="M461.312,301.589c-0.618,0-1.104-0.176-1.456-0.529c-0.354-0.354-0.53-0.838-0.53-1.457v-9.863
			c0-0.485-0.099-0.75-0.298-0.795c-0.198-0.043-0.43,0.066-0.695,0.331l-0.728,0.729c-0.442,0.441-0.917,0.662-1.424,0.662
			c-0.508,0-0.982-0.221-1.423-0.662l-1.126-1.191c-0.44-0.441-0.662-0.916-0.662-1.424c0-0.507,0.222-0.96,0.662-1.357l4.635-4.7
			c0.44-0.44,0.728-0.827,0.86-1.158c0.132-0.331,0.198-0.717,0.198-1.158v-20.456c0-0.617,0.176-1.103,0.53-1.456
			c0.353-0.354,0.838-0.53,1.456-0.53h2.317c0.617,0,1.103,0.177,1.456,0.53c0.353,0.354,0.529,0.839,0.529,1.456v13.968
			c0,0.486,0.1,0.751,0.298,0.795c0.199,0.044,0.431-0.066,0.695-0.331l0.729-0.729c0.44-0.44,0.915-0.662,1.423-0.662
			c0.507,0,0.981,0.222,1.424,0.662l1.125,1.192c0.44,0.441,0.662,0.916,0.662,1.423c0,0.508-0.222,0.96-0.662,1.357l-4.634,4.7
			c-0.441,0.441-0.729,0.827-0.86,1.158c-0.133,0.331-0.199,0.718-0.199,1.158v11.718c0,0.441,0.221,0.662,0.662,0.662h18.073
			c0.617,0,1.103,0.177,1.456,0.529c0.353,0.354,0.529,0.839,0.529,1.457v1.985c0,0.619-0.177,1.104-0.529,1.457
			c-0.354,0.354-0.839,0.529-1.456,0.529H461.312z"/>
		<path d="M500.567,301.589c-0.618,0-1.104-0.176-1.456-0.529c-0.354-0.354-0.529-0.838-0.529-1.457v-15.888
			c0-0.75-0.31-1.235-0.927-1.457c-3.442-0.97-6.136-2.769-8.077-5.395c-1.942-2.626-2.912-5.859-2.912-9.698v-8.606
			c0-0.617,0.176-1.103,0.529-1.456c0.353-0.354,0.838-0.53,1.456-0.53h2.317c0.617,0,1.103,0.177,1.456,0.53
			c0.353,0.354,0.53,0.839,0.53,1.456v8.606c0,1.323,0.165,2.571,0.496,3.74c0.331,1.17,0.85,2.185,1.556,3.045
			c0.705,0.86,1.6,1.545,2.682,2.052c1.08,0.508,2.371,0.762,3.872,0.762c1.5,0,2.791-0.254,3.873-0.762
			c1.081-0.507,1.975-1.191,2.681-2.052s1.225-1.875,1.556-3.045c0.331-1.169,0.497-2.417,0.497-3.74v-8.606
			c0-0.617,0.176-1.103,0.529-1.456c0.353-0.354,0.838-0.53,1.456-0.53h2.317c0.617,0,1.103,0.177,1.456,0.53s0.53,0.839,0.53,1.456
			v8.606c0,3.751-0.95,6.974-2.847,9.665c-1.898,2.692-4.502,4.479-7.812,5.362c-0.354,0.089-0.596,0.276-0.729,0.563
			c-0.133,0.287-0.198,0.607-0.198,0.96v15.888c0,0.619-0.177,1.104-0.53,1.457s-0.839,0.529-1.456,0.529H500.567z"/>
		<path d="M521.289,293.182c0.44-0.44,0.915-0.64,1.423-0.596c0.507,0.044,0.96,0.243,1.357,0.596
			c0.353,0.309,0.75,0.651,1.191,1.025c0.44,0.376,0.948,0.719,1.522,1.026c0.573,0.31,1.235,0.563,1.986,0.762
			c0.75,0.198,1.61,0.298,2.582,0.298c2.118,0,3.861-0.585,5.229-1.755c1.367-1.168,2.052-2.636,2.052-4.402
			c0-1.985-0.606-3.574-1.82-4.766c-1.214-1.192-3.145-2.427-5.792-3.708c-1.678-0.794-3.189-1.632-4.535-2.516
			c-1.347-0.882-2.505-1.875-3.476-2.979c-0.972-1.103-1.711-2.351-2.218-3.74c-0.508-1.391-0.761-2.989-0.761-4.8
			c0-1.5,0.286-2.956,0.86-4.369c0.573-1.412,1.412-2.658,2.516-3.74c1.103-1.081,2.438-1.953,4.005-2.615
			c1.566-0.662,3.32-0.993,5.263-0.993c2.516,0,4.667,0.486,6.455,1.457c1.787,0.971,3.211,1.985,4.27,3.045
			c0.927,0.927,0.927,1.854,0,2.78l-1.522,1.589c-0.441,0.441-0.86,0.674-1.258,0.695c-0.397,0.022-0.86-0.209-1.391-0.695
			c-0.573-0.529-1.456-1.147-2.647-1.854c-1.191-0.705-2.494-1.06-3.906-1.06c-0.971,0-1.864,0.166-2.681,0.497
			c-0.817,0.331-1.522,0.761-2.118,1.291c-0.597,0.529-1.06,1.137-1.391,1.82c-0.331,0.685-0.496,1.401-0.496,2.151
			c0,0.972,0.143,1.832,0.43,2.582c0.287,0.751,0.729,1.446,1.324,2.085c0.596,0.641,1.367,1.248,2.317,1.82
			c0.948,0.574,2.106,1.148,3.476,1.722c1.809,0.794,3.419,1.633,4.832,2.516c1.412,0.883,2.604,1.865,3.575,2.946
			c0.97,1.081,1.71,2.316,2.218,3.707c0.507,1.39,0.761,2.99,0.761,4.799c0,1.679-0.354,3.267-1.059,4.767
			c-0.707,1.501-1.678,2.813-2.913,3.939c-1.236,1.125-2.681,2.03-4.336,2.714s-3.409,1.026-5.263,1.026
			c-3.002,0-5.353-0.453-7.051-1.357c-1.699-0.904-3.189-2.063-4.469-3.476c-0.354-0.353-0.552-0.794-0.596-1.324
			c-0.044-0.529,0.154-1.015,0.596-1.456L521.289,293.182z"/>
		<path d="M551.542,301.589c-0.618,0-1.104-0.176-1.456-0.529c-0.354-0.354-0.53-0.838-0.53-1.457v-41.044
			c0-0.617,0.176-1.103,0.53-1.456c0.353-0.354,0.838-0.53,1.456-0.53h2.317c0.617,0,1.103,0.177,1.456,0.53
			c0.353,0.354,0.529,0.839,0.529,1.456v41.044c0,0.619-0.177,1.104-0.529,1.457c-0.354,0.354-0.839,0.529-1.456,0.529H551.542z"/>
		<path d="M591.658,301.589c-0.441,0.353-0.938,0.507-1.489,0.464c-0.553-0.045-1.07-0.199-1.556-0.464l-19.265-11.254
			c-0.309-0.176-0.585-0.176-0.827,0c-0.243,0.177-0.409,0.397-0.497,0.662L565.311,300c-0.31,1.06-1.06,1.589-2.251,1.589h-3.243
			c-1.281,0-1.744-0.617-1.391-1.854l13.24-41.375c0.22-0.706,0.519-1.181,0.894-1.424c0.374-0.242,0.871-0.364,1.489-0.364h4.635
			c0.617,0,1.113,0.122,1.489,0.364c0.374,0.243,0.672,0.718,0.894,1.424l12.645,39.588c0.308,1.016,0.132,1.81-0.53,2.383
			L591.658,301.589z M577.028,264.979c-0.133-0.484-0.354-0.728-0.662-0.728c-0.31,0-0.529,0.243-0.662,0.728l-5.229,17.478
			c-0.177,0.574-0.199,1.004-0.066,1.291c0.132,0.287,0.353,0.519,0.662,0.695l12.445,7.281c0.485,0.31,0.838,0.343,1.06,0.1
			c0.22-0.242,0.286-0.519,0.198-0.827L577.028,264.979z"/>
		<path d="M621.117,301.589c-1.104,0-1.92-0.596-2.449-1.787l-9.599-20.06c-0.133-0.265-0.31-0.407-0.53-0.43
			c-0.221-0.021-0.441,0.077-0.662,0.298l-3.839,4.833c-0.574,0.706-0.861,1.522-0.861,2.449v12.71c0,0.619-0.177,1.104-0.529,1.457
			c-0.354,0.354-0.839,0.529-1.456,0.529h-2.317c-0.618,0-1.104-0.176-1.456-0.529c-0.354-0.354-0.53-0.838-0.53-1.457v-41.044
			c0-0.617,0.176-1.103,0.53-1.456c0.353-0.354,0.838-0.53,1.456-0.53h2.317c0.617,0,1.103,0.177,1.456,0.53
			c0.353,0.354,0.529,0.839,0.529,1.456v16.219c0,0.354,0.121,0.574,0.364,0.662c0.242,0.089,0.474-0.021,0.695-0.331l13.703-17.477
			c0.53-0.706,1.368-1.06,2.516-1.06h3.575c0.617,0,1.026,0.21,1.225,0.629c0.198,0.42,0.121,0.828-0.231,1.225l-11.188,13.836
			c-0.574,0.707-0.685,1.435-0.331,2.185l11.982,24.76c0.309,0.661,0.331,1.225,0.066,1.688c-0.265,0.464-0.729,0.695-1.391,0.695
			H621.117z"/>
	</g>
	<g>
		<path d="M254.214,358.189v-22.248h13.419v2.665h-10.305v6.709h9.149v2.633h-9.149v10.241H254.214z"/>
		<path d="M282.979,347.05c0-1.905,0.283-3.584,0.851-5.041c0.566-1.455,1.337-2.669,2.312-3.644
			c0.974-0.974,2.107-1.707,3.402-2.199c1.295-0.492,2.67-0.738,4.126-0.738c1.434,0,2.787,0.247,4.061,0.738
			c1.273,0.493,2.392,1.226,3.354,2.199c0.964,0.974,1.729,2.188,2.296,3.644c0.566,1.456,0.851,3.136,0.851,5.041
			s-0.284,3.585-0.851,5.04c-0.567,1.456-1.332,2.67-2.296,3.644c-0.963,0.974-2.081,1.707-3.354,2.199s-2.627,0.738-4.061,0.738
			c-1.456,0-2.831-0.246-4.126-0.738s-2.429-1.225-3.402-2.199c-0.975-0.974-1.745-2.188-2.312-3.644
			C283.262,350.635,282.979,348.955,282.979,347.05z M286.253,347.05c0,1.348,0.171,2.574,0.514,3.676
			c0.342,1.103,0.829,2.039,1.461,2.809c0.631,0.771,1.401,1.364,2.311,1.782c0.91,0.417,1.932,0.626,3.066,0.626
			c1.134,0,2.15-0.209,3.05-0.626c0.898-0.417,1.664-1.011,2.295-1.782s1.118-1.707,1.461-2.809
			c0.342-1.102,0.514-2.328,0.514-3.676c0-1.349-0.172-2.573-0.514-3.676c-0.343-1.102-0.83-2.039-1.461-2.809
			s-1.396-1.364-2.295-1.782c-0.899-0.417-1.916-0.626-3.05-0.626c-1.135,0-2.156,0.208-3.066,0.626
			c-0.909,0.417-1.68,1.011-2.311,1.782c-0.632,0.771-1.119,1.707-1.461,2.809C286.424,344.477,286.253,345.701,286.253,347.05z"/>
		<path d="M335.692,335.942v2.697h-6.999v19.551h-3.114v-19.551h-6.998v-2.697H335.692z"/>
		<path d="M350.042,347.05c0-1.905,0.283-3.584,0.851-5.041c0.566-1.455,1.337-2.669,2.312-3.644
			c0.974-0.974,2.107-1.707,3.402-2.199c1.295-0.492,2.67-0.738,4.126-0.738c1.434,0,2.787,0.247,4.061,0.738
			c1.273,0.493,2.392,1.226,3.354,2.199c0.964,0.974,1.729,2.188,2.296,3.644c0.566,1.456,0.851,3.136,0.851,5.041
			s-0.284,3.585-0.851,5.04c-0.567,1.456-1.332,2.67-2.296,3.644c-0.963,0.974-2.081,1.707-3.354,2.199s-2.627,0.738-4.061,0.738
			c-1.456,0-2.831-0.246-4.126-0.738s-2.429-1.225-3.402-2.199c-0.975-0.974-1.745-2.188-2.312-3.644
			C350.325,350.635,350.042,348.955,350.042,347.05z M353.316,347.05c0,1.348,0.171,2.574,0.514,3.676
			c0.342,1.103,0.829,2.039,1.461,2.809c0.631,0.771,1.401,1.364,2.311,1.782c0.91,0.417,1.932,0.626,3.066,0.626
			c1.134,0,2.15-0.209,3.05-0.626c0.898-0.417,1.664-1.011,2.295-1.782s1.118-1.707,1.461-2.809
			c0.342-1.102,0.514-2.328,0.514-3.676c0-1.349-0.172-2.573-0.514-3.676c-0.343-1.102-0.83-2.039-1.461-2.809
			s-1.396-1.364-2.295-1.782c-0.899-0.417-1.916-0.626-3.05-0.626c-1.135,0-2.156,0.208-3.066,0.626
			c-0.909,0.417-1.68,1.011-2.311,1.782c-0.632,0.771-1.119,1.707-1.461,2.809C353.487,344.477,353.316,345.701,353.316,347.05z"/>
		<path d="M402.338,347.242h3.113v10.401c-0.257,0.086-0.626,0.182-1.107,0.289c-0.481,0.107-1.038,0.214-1.669,0.321
			c-0.632,0.107-1.322,0.198-2.071,0.273c-0.749,0.075-1.509,0.112-2.279,0.112c-1.563,0-2.985-0.257-4.27-0.77
			c-1.284-0.514-2.387-1.263-3.307-2.248c-0.92-0.984-1.632-2.193-2.135-3.627c-0.503-1.434-0.754-3.082-0.754-4.944
			c0-1.862,0.283-3.516,0.851-4.96c0.566-1.445,1.332-2.659,2.295-3.644c0.963-0.984,2.092-1.733,3.387-2.247
			s2.681-0.771,4.158-0.771c1.005,0,1.898,0.064,2.681,0.193c0.78,0.128,1.449,0.278,2.006,0.449
			c0.557,0.172,1.012,0.343,1.364,0.514c0.354,0.171,0.594,0.3,0.723,0.385l-0.995,2.601c-0.621-0.406-1.444-0.744-2.472-1.011
			s-2.076-0.401-3.146-0.401c-1.135,0-2.167,0.204-3.098,0.61c-0.932,0.407-1.724,0.995-2.376,1.766
			c-0.653,0.771-1.161,1.707-1.524,2.809c-0.364,1.103-0.546,2.338-0.546,3.708c0,1.327,0.154,2.536,0.465,3.627
			c0.311,1.092,0.781,2.028,1.413,2.809c0.631,0.782,1.412,1.386,2.344,1.814c0.931,0.428,2.027,0.642,3.29,0.642
			c0.899,0,1.664-0.048,2.296-0.145c0.631-0.096,1.086-0.187,1.364-0.273V347.242z"/>
		<path d="M434.056,348.879c0.343,0.429,0.775,0.99,1.301,1.686c0.523,0.696,1.064,1.466,1.621,2.312
			c0.556,0.846,1.107,1.729,1.653,2.648c0.546,0.92,1.011,1.809,1.396,2.665h-3.403c-0.428-0.813-0.894-1.637-1.396-2.472
			c-0.503-0.834-1.011-1.631-1.524-2.392c-0.514-0.759-1.022-1.471-1.525-2.135c-0.503-0.663-0.958-1.241-1.364-1.733
			c-0.278,0.021-0.562,0.032-0.851,0.032s-0.583,0-0.883,0h-2.793v8.7h-3.114v-21.926c0.878-0.214,1.856-0.358,2.938-0.434
			c1.08-0.075,2.07-0.112,2.97-0.112c3.124,0,5.506,0.589,7.143,1.766c1.638,1.177,2.456,2.933,2.456,5.265
			c0,1.477-0.391,2.74-1.172,3.788C436.726,347.585,435.575,348.366,434.056,348.879z M429.337,338.446
			c-1.327,0-2.344,0.032-3.05,0.097v8.379h2.215c1.07,0,2.033-0.053,2.89-0.161c0.855-0.107,1.578-0.31,2.167-0.61
			c0.588-0.299,1.043-0.723,1.364-1.268c0.321-0.546,0.481-1.268,0.481-2.167c0-0.835-0.16-1.53-0.481-2.087
			c-0.321-0.556-0.755-0.995-1.301-1.316c-0.545-0.321-1.188-0.546-1.926-0.674S430.172,338.446,429.337,338.446z"/>
		<path d="M471.97,358.189c-0.364-0.963-0.707-1.91-1.027-2.841c-0.321-0.931-0.653-1.878-0.995-2.841h-10.081l-2.022,5.682h-3.242
			c0.855-2.354,1.658-4.532,2.408-6.533c0.748-2,1.481-3.9,2.198-5.698s1.429-3.515,2.135-5.152
			c0.707-1.637,1.445-3.258,2.216-4.864h2.856c0.771,1.605,1.51,3.227,2.216,4.864s1.417,3.354,2.135,5.152
			c0.717,1.798,1.449,3.698,2.199,5.698c0.749,2.001,1.551,4.179,2.407,6.533H471.97z M469.048,349.939
			c-0.686-1.862-1.364-3.665-2.038-5.409c-0.675-1.744-1.376-3.419-2.104-5.024c-0.749,1.605-1.46,3.28-2.135,5.024
			c-0.674,1.745-1.343,3.547-2.006,5.409H469.048z"/>
		<path d="M491.231,358.189v-22.248h13.419v2.665h-10.305v6.709h9.149v2.633h-9.149v10.241H491.231z"/>
		<path d="M521.312,335.942h3.114v22.248h-3.114V335.942z"/>
		<path d="M557.652,358.189c-0.364-0.963-0.707-1.91-1.027-2.841c-0.321-0.931-0.653-1.878-0.995-2.841h-10.081l-2.022,5.682h-3.242
			c0.855-2.354,1.658-4.532,2.408-6.533c0.748-2,1.481-3.9,2.198-5.698s1.429-3.515,2.135-5.152
			c0.707-1.637,1.445-3.258,2.216-4.864h2.856c0.771,1.605,1.51,3.227,2.216,4.864s1.417,3.354,2.135,5.152
			c0.717,1.798,1.449,3.698,2.199,5.698c0.749,2.001,1.551,4.179,2.407,6.533H557.652z M554.73,349.939
			c-0.686-1.862-1.364-3.665-2.038-5.409c-0.675-1.744-1.376-3.419-2.104-5.024c-0.749,1.605-1.46,3.28-2.135,5.024
			c-0.674,1.745-1.343,3.547-2.006,5.409H554.73z"/>
	</g>
</g>
</svg>
